%TF.GenerationSoftware,KiCad,Pcbnew,7.0.2*%
%TF.CreationDate,2023-06-02T21:02:48+10:00*%
%TF.ProjectId,potentiometer-carrier-board,706f7465-6e74-4696-9f6d-657465722d63,rev?*%
%TF.SameCoordinates,Original*%
%TF.FileFunction,Drillmap*%
%TF.FilePolarity,Positive*%
%FSLAX45Y45*%
G04 Gerber Fmt 4.5, Leading zero omitted, Abs format (unit mm)*
G04 Created by KiCad (PCBNEW 7.0.2) date 2023-06-02 21:02:48*
%MOMM*%
%LPD*%
G01*
G04 APERTURE LIST*
%ADD10C,0.100000*%
%ADD11C,0.200000*%
G04 APERTURE END LIST*
D10*
X4572000Y-4318000D02*
X8128000Y-4318000D01*
X8128000Y-8128000D01*
X4572000Y-8128000D01*
X4572000Y-4318000D01*
D11*
X4814619Y-8445524D02*
X4814619Y-8245524D01*
X4814619Y-8245524D02*
X4862238Y-8245524D01*
X4862238Y-8245524D02*
X4890810Y-8255048D01*
X4890810Y-8255048D02*
X4909857Y-8274095D01*
X4909857Y-8274095D02*
X4919381Y-8293143D01*
X4919381Y-8293143D02*
X4928905Y-8331238D01*
X4928905Y-8331238D02*
X4928905Y-8359809D01*
X4928905Y-8359809D02*
X4919381Y-8397905D01*
X4919381Y-8397905D02*
X4909857Y-8416952D01*
X4909857Y-8416952D02*
X4890810Y-8436000D01*
X4890810Y-8436000D02*
X4862238Y-8445524D01*
X4862238Y-8445524D02*
X4814619Y-8445524D01*
X5014619Y-8445524D02*
X5014619Y-8312190D01*
X5014619Y-8350286D02*
X5024143Y-8331238D01*
X5024143Y-8331238D02*
X5033667Y-8321714D01*
X5033667Y-8321714D02*
X5052714Y-8312190D01*
X5052714Y-8312190D02*
X5071762Y-8312190D01*
X5138429Y-8445524D02*
X5138429Y-8312190D01*
X5138429Y-8245524D02*
X5128905Y-8255048D01*
X5128905Y-8255048D02*
X5138429Y-8264571D01*
X5138429Y-8264571D02*
X5147952Y-8255048D01*
X5147952Y-8255048D02*
X5138429Y-8245524D01*
X5138429Y-8245524D02*
X5138429Y-8264571D01*
X5262238Y-8445524D02*
X5243190Y-8436000D01*
X5243190Y-8436000D02*
X5233667Y-8416952D01*
X5233667Y-8416952D02*
X5233667Y-8245524D01*
X5367000Y-8445524D02*
X5347952Y-8436000D01*
X5347952Y-8436000D02*
X5338429Y-8416952D01*
X5338429Y-8416952D02*
X5338429Y-8245524D01*
X5595571Y-8445524D02*
X5595571Y-8245524D01*
X5595571Y-8245524D02*
X5662238Y-8388381D01*
X5662238Y-8388381D02*
X5728905Y-8245524D01*
X5728905Y-8245524D02*
X5728905Y-8445524D01*
X5909857Y-8445524D02*
X5909857Y-8340762D01*
X5909857Y-8340762D02*
X5900333Y-8321714D01*
X5900333Y-8321714D02*
X5881286Y-8312190D01*
X5881286Y-8312190D02*
X5843190Y-8312190D01*
X5843190Y-8312190D02*
X5824143Y-8321714D01*
X5909857Y-8436000D02*
X5890809Y-8445524D01*
X5890809Y-8445524D02*
X5843190Y-8445524D01*
X5843190Y-8445524D02*
X5824143Y-8436000D01*
X5824143Y-8436000D02*
X5814619Y-8416952D01*
X5814619Y-8416952D02*
X5814619Y-8397905D01*
X5814619Y-8397905D02*
X5824143Y-8378857D01*
X5824143Y-8378857D02*
X5843190Y-8369333D01*
X5843190Y-8369333D02*
X5890809Y-8369333D01*
X5890809Y-8369333D02*
X5909857Y-8359809D01*
X6005095Y-8312190D02*
X6005095Y-8512190D01*
X6005095Y-8321714D02*
X6024143Y-8312190D01*
X6024143Y-8312190D02*
X6062238Y-8312190D01*
X6062238Y-8312190D02*
X6081286Y-8321714D01*
X6081286Y-8321714D02*
X6090809Y-8331238D01*
X6090809Y-8331238D02*
X6100333Y-8350286D01*
X6100333Y-8350286D02*
X6100333Y-8407429D01*
X6100333Y-8407429D02*
X6090809Y-8426476D01*
X6090809Y-8426476D02*
X6081286Y-8436000D01*
X6081286Y-8436000D02*
X6062238Y-8445524D01*
X6062238Y-8445524D02*
X6024143Y-8445524D01*
X6024143Y-8445524D02*
X6005095Y-8436000D01*
X6186048Y-8426476D02*
X6195571Y-8436000D01*
X6195571Y-8436000D02*
X6186048Y-8445524D01*
X6186048Y-8445524D02*
X6176524Y-8436000D01*
X6176524Y-8436000D02*
X6186048Y-8426476D01*
X6186048Y-8426476D02*
X6186048Y-8445524D01*
X6186048Y-8321714D02*
X6195571Y-8331238D01*
X6195571Y-8331238D02*
X6186048Y-8340762D01*
X6186048Y-8340762D02*
X6176524Y-8331238D01*
X6176524Y-8331238D02*
X6186048Y-8321714D01*
X6186048Y-8321714D02*
X6186048Y-8340762D01*
M02*
