%TF.GenerationSoftware,KiCad,Pcbnew,7.0.2*%
%TF.CreationDate,2023-06-02T21:02:48+10:00*%
%TF.ProjectId,potentiometer-carrier-board,706f7465-6e74-4696-9f6d-657465722d63,rev?*%
%TF.SameCoordinates,Original*%
%TF.FileFunction,Drillmap*%
%TF.FilePolarity,Positive*%
%FSLAX45Y45*%
G04 Gerber Fmt 4.5, Leading zero omitted, Abs format (unit mm)*
G04 Created by KiCad (PCBNEW 7.0.2) date 2023-06-02 21:02:48*
%MOMM*%
%LPD*%
G01*
G04 APERTURE LIST*
%ADD10C,0.100000*%
%ADD11C,0.200000*%
G04 APERTURE END LIST*
D10*
X4572000Y-4318000D02*
X8128000Y-4318000D01*
X8128000Y-8128000D01*
X4572000Y-8128000D01*
X4572000Y-4318000D01*
D11*
D10*
X4776000Y-6300000D02*
X4876000Y-6400000D01*
X4876000Y-6300000D02*
X4776000Y-6400000D01*
X4776000Y-6554000D02*
X4876000Y-6654000D01*
X4876000Y-6554000D02*
X4776000Y-6654000D01*
X4776000Y-6808000D02*
X4876000Y-6908000D01*
X4876000Y-6808000D02*
X4776000Y-6908000D01*
X4776000Y-7062000D02*
X4876000Y-7162000D01*
X4876000Y-7062000D02*
X4776000Y-7162000D01*
X4776000Y-7316000D02*
X4876000Y-7416000D01*
X4876000Y-7316000D02*
X4776000Y-7416000D01*
X5792000Y-4776000D02*
X5892000Y-4876000D01*
X5892000Y-4776000D02*
X5792000Y-4876000D01*
X6300000Y-4776000D02*
X6400000Y-4876000D01*
X6400000Y-4776000D02*
X6300000Y-4876000D01*
X6808000Y-4776000D02*
X6908000Y-4876000D01*
X6908000Y-4776000D02*
X6808000Y-4876000D01*
X7824000Y-6300000D02*
X7924000Y-6400000D01*
X7924000Y-6300000D02*
X7824000Y-6400000D01*
X7824000Y-6554000D02*
X7924000Y-6654000D01*
X7924000Y-6554000D02*
X7824000Y-6654000D01*
X7824000Y-6808000D02*
X7924000Y-6908000D01*
X7924000Y-6808000D02*
X7824000Y-6908000D01*
X7824000Y-7062000D02*
X7924000Y-7162000D01*
X7924000Y-7062000D02*
X7824000Y-7162000D01*
X7824000Y-7316000D02*
X7924000Y-7416000D01*
X7924000Y-7316000D02*
X7824000Y-7416000D01*
D11*
X4814619Y-8445524D02*
X4814619Y-8245524D01*
X4814619Y-8245524D02*
X4862238Y-8245524D01*
X4862238Y-8245524D02*
X4890810Y-8255048D01*
X4890810Y-8255048D02*
X4909857Y-8274095D01*
X4909857Y-8274095D02*
X4919381Y-8293143D01*
X4919381Y-8293143D02*
X4928905Y-8331238D01*
X4928905Y-8331238D02*
X4928905Y-8359809D01*
X4928905Y-8359809D02*
X4919381Y-8397905D01*
X4919381Y-8397905D02*
X4909857Y-8416952D01*
X4909857Y-8416952D02*
X4890810Y-8436000D01*
X4890810Y-8436000D02*
X4862238Y-8445524D01*
X4862238Y-8445524D02*
X4814619Y-8445524D01*
X5014619Y-8445524D02*
X5014619Y-8312190D01*
X5014619Y-8350286D02*
X5024143Y-8331238D01*
X5024143Y-8331238D02*
X5033667Y-8321714D01*
X5033667Y-8321714D02*
X5052714Y-8312190D01*
X5052714Y-8312190D02*
X5071762Y-8312190D01*
X5138429Y-8445524D02*
X5138429Y-8312190D01*
X5138429Y-8245524D02*
X5128905Y-8255048D01*
X5128905Y-8255048D02*
X5138429Y-8264571D01*
X5138429Y-8264571D02*
X5147952Y-8255048D01*
X5147952Y-8255048D02*
X5138429Y-8245524D01*
X5138429Y-8245524D02*
X5138429Y-8264571D01*
X5262238Y-8445524D02*
X5243190Y-8436000D01*
X5243190Y-8436000D02*
X5233667Y-8416952D01*
X5233667Y-8416952D02*
X5233667Y-8245524D01*
X5367000Y-8445524D02*
X5347952Y-8436000D01*
X5347952Y-8436000D02*
X5338429Y-8416952D01*
X5338429Y-8416952D02*
X5338429Y-8245524D01*
X5595571Y-8445524D02*
X5595571Y-8245524D01*
X5595571Y-8245524D02*
X5662238Y-8388381D01*
X5662238Y-8388381D02*
X5728905Y-8245524D01*
X5728905Y-8245524D02*
X5728905Y-8445524D01*
X5909857Y-8445524D02*
X5909857Y-8340762D01*
X5909857Y-8340762D02*
X5900333Y-8321714D01*
X5900333Y-8321714D02*
X5881286Y-8312190D01*
X5881286Y-8312190D02*
X5843190Y-8312190D01*
X5843190Y-8312190D02*
X5824143Y-8321714D01*
X5909857Y-8436000D02*
X5890809Y-8445524D01*
X5890809Y-8445524D02*
X5843190Y-8445524D01*
X5843190Y-8445524D02*
X5824143Y-8436000D01*
X5824143Y-8436000D02*
X5814619Y-8416952D01*
X5814619Y-8416952D02*
X5814619Y-8397905D01*
X5814619Y-8397905D02*
X5824143Y-8378857D01*
X5824143Y-8378857D02*
X5843190Y-8369333D01*
X5843190Y-8369333D02*
X5890809Y-8369333D01*
X5890809Y-8369333D02*
X5909857Y-8359809D01*
X6005095Y-8312190D02*
X6005095Y-8512190D01*
X6005095Y-8321714D02*
X6024143Y-8312190D01*
X6024143Y-8312190D02*
X6062238Y-8312190D01*
X6062238Y-8312190D02*
X6081286Y-8321714D01*
X6081286Y-8321714D02*
X6090809Y-8331238D01*
X6090809Y-8331238D02*
X6100333Y-8350286D01*
X6100333Y-8350286D02*
X6100333Y-8407429D01*
X6100333Y-8407429D02*
X6090809Y-8426476D01*
X6090809Y-8426476D02*
X6081286Y-8436000D01*
X6081286Y-8436000D02*
X6062238Y-8445524D01*
X6062238Y-8445524D02*
X6024143Y-8445524D01*
X6024143Y-8445524D02*
X6005095Y-8436000D01*
X6186048Y-8426476D02*
X6195571Y-8436000D01*
X6195571Y-8436000D02*
X6186048Y-8445524D01*
X6186048Y-8445524D02*
X6176524Y-8436000D01*
X6176524Y-8436000D02*
X6186048Y-8426476D01*
X6186048Y-8426476D02*
X6186048Y-8445524D01*
X6186048Y-8321714D02*
X6195571Y-8331238D01*
X6195571Y-8331238D02*
X6186048Y-8340762D01*
X6186048Y-8340762D02*
X6176524Y-8331238D01*
X6176524Y-8331238D02*
X6186048Y-8321714D01*
X6186048Y-8321714D02*
X6186048Y-8340762D01*
D10*
X4467000Y-8723000D02*
X4567000Y-8823000D01*
X4567000Y-8723000D02*
X4467000Y-8823000D01*
D11*
X4919381Y-8865524D02*
X4805095Y-8865524D01*
X4862238Y-8865524D02*
X4862238Y-8665524D01*
X4862238Y-8665524D02*
X4843190Y-8694095D01*
X4843190Y-8694095D02*
X4824143Y-8713143D01*
X4824143Y-8713143D02*
X4805095Y-8722667D01*
X5005095Y-8846476D02*
X5014619Y-8856000D01*
X5014619Y-8856000D02*
X5005095Y-8865524D01*
X5005095Y-8865524D02*
X4995571Y-8856000D01*
X4995571Y-8856000D02*
X5005095Y-8846476D01*
X5005095Y-8846476D02*
X5005095Y-8865524D01*
X5138429Y-8665524D02*
X5157476Y-8665524D01*
X5157476Y-8665524D02*
X5176524Y-8675048D01*
X5176524Y-8675048D02*
X5186048Y-8684571D01*
X5186048Y-8684571D02*
X5195571Y-8703619D01*
X5195571Y-8703619D02*
X5205095Y-8741714D01*
X5205095Y-8741714D02*
X5205095Y-8789333D01*
X5205095Y-8789333D02*
X5195571Y-8827429D01*
X5195571Y-8827429D02*
X5186048Y-8846476D01*
X5186048Y-8846476D02*
X5176524Y-8856000D01*
X5176524Y-8856000D02*
X5157476Y-8865524D01*
X5157476Y-8865524D02*
X5138429Y-8865524D01*
X5138429Y-8865524D02*
X5119381Y-8856000D01*
X5119381Y-8856000D02*
X5109857Y-8846476D01*
X5109857Y-8846476D02*
X5100333Y-8827429D01*
X5100333Y-8827429D02*
X5090810Y-8789333D01*
X5090810Y-8789333D02*
X5090810Y-8741714D01*
X5090810Y-8741714D02*
X5100333Y-8703619D01*
X5100333Y-8703619D02*
X5109857Y-8684571D01*
X5109857Y-8684571D02*
X5119381Y-8675048D01*
X5119381Y-8675048D02*
X5138429Y-8665524D01*
X5328905Y-8665524D02*
X5347952Y-8665524D01*
X5347952Y-8665524D02*
X5367000Y-8675048D01*
X5367000Y-8675048D02*
X5376524Y-8684571D01*
X5376524Y-8684571D02*
X5386048Y-8703619D01*
X5386048Y-8703619D02*
X5395571Y-8741714D01*
X5395571Y-8741714D02*
X5395571Y-8789333D01*
X5395571Y-8789333D02*
X5386048Y-8827429D01*
X5386048Y-8827429D02*
X5376524Y-8846476D01*
X5376524Y-8846476D02*
X5367000Y-8856000D01*
X5367000Y-8856000D02*
X5347952Y-8865524D01*
X5347952Y-8865524D02*
X5328905Y-8865524D01*
X5328905Y-8865524D02*
X5309857Y-8856000D01*
X5309857Y-8856000D02*
X5300333Y-8846476D01*
X5300333Y-8846476D02*
X5290810Y-8827429D01*
X5290810Y-8827429D02*
X5281286Y-8789333D01*
X5281286Y-8789333D02*
X5281286Y-8741714D01*
X5281286Y-8741714D02*
X5290810Y-8703619D01*
X5290810Y-8703619D02*
X5300333Y-8684571D01*
X5300333Y-8684571D02*
X5309857Y-8675048D01*
X5309857Y-8675048D02*
X5328905Y-8665524D01*
X5519381Y-8665524D02*
X5538429Y-8665524D01*
X5538429Y-8665524D02*
X5557476Y-8675048D01*
X5557476Y-8675048D02*
X5567000Y-8684571D01*
X5567000Y-8684571D02*
X5576524Y-8703619D01*
X5576524Y-8703619D02*
X5586048Y-8741714D01*
X5586048Y-8741714D02*
X5586048Y-8789333D01*
X5586048Y-8789333D02*
X5576524Y-8827429D01*
X5576524Y-8827429D02*
X5567000Y-8846476D01*
X5567000Y-8846476D02*
X5557476Y-8856000D01*
X5557476Y-8856000D02*
X5538429Y-8865524D01*
X5538429Y-8865524D02*
X5519381Y-8865524D01*
X5519381Y-8865524D02*
X5500333Y-8856000D01*
X5500333Y-8856000D02*
X5490810Y-8846476D01*
X5490810Y-8846476D02*
X5481286Y-8827429D01*
X5481286Y-8827429D02*
X5471762Y-8789333D01*
X5471762Y-8789333D02*
X5471762Y-8741714D01*
X5471762Y-8741714D02*
X5481286Y-8703619D01*
X5481286Y-8703619D02*
X5490810Y-8684571D01*
X5490810Y-8684571D02*
X5500333Y-8675048D01*
X5500333Y-8675048D02*
X5519381Y-8665524D01*
X5671762Y-8865524D02*
X5671762Y-8732190D01*
X5671762Y-8751238D02*
X5681286Y-8741714D01*
X5681286Y-8741714D02*
X5700333Y-8732190D01*
X5700333Y-8732190D02*
X5728905Y-8732190D01*
X5728905Y-8732190D02*
X5747952Y-8741714D01*
X5747952Y-8741714D02*
X5757476Y-8760762D01*
X5757476Y-8760762D02*
X5757476Y-8865524D01*
X5757476Y-8760762D02*
X5767000Y-8741714D01*
X5767000Y-8741714D02*
X5786048Y-8732190D01*
X5786048Y-8732190D02*
X5814619Y-8732190D01*
X5814619Y-8732190D02*
X5833667Y-8741714D01*
X5833667Y-8741714D02*
X5843190Y-8760762D01*
X5843190Y-8760762D02*
X5843190Y-8865524D01*
X5938429Y-8865524D02*
X5938429Y-8732190D01*
X5938429Y-8751238D02*
X5947952Y-8741714D01*
X5947952Y-8741714D02*
X5967000Y-8732190D01*
X5967000Y-8732190D02*
X5995571Y-8732190D01*
X5995571Y-8732190D02*
X6014619Y-8741714D01*
X6014619Y-8741714D02*
X6024143Y-8760762D01*
X6024143Y-8760762D02*
X6024143Y-8865524D01*
X6024143Y-8760762D02*
X6033667Y-8741714D01*
X6033667Y-8741714D02*
X6052714Y-8732190D01*
X6052714Y-8732190D02*
X6081286Y-8732190D01*
X6081286Y-8732190D02*
X6100333Y-8741714D01*
X6100333Y-8741714D02*
X6109857Y-8760762D01*
X6109857Y-8760762D02*
X6109857Y-8865524D01*
X6500333Y-8656000D02*
X6328905Y-8913143D01*
X6757476Y-8665524D02*
X6776524Y-8665524D01*
X6776524Y-8665524D02*
X6795572Y-8675048D01*
X6795572Y-8675048D02*
X6805095Y-8684571D01*
X6805095Y-8684571D02*
X6814619Y-8703619D01*
X6814619Y-8703619D02*
X6824143Y-8741714D01*
X6824143Y-8741714D02*
X6824143Y-8789333D01*
X6824143Y-8789333D02*
X6814619Y-8827429D01*
X6814619Y-8827429D02*
X6805095Y-8846476D01*
X6805095Y-8846476D02*
X6795572Y-8856000D01*
X6795572Y-8856000D02*
X6776524Y-8865524D01*
X6776524Y-8865524D02*
X6757476Y-8865524D01*
X6757476Y-8865524D02*
X6738429Y-8856000D01*
X6738429Y-8856000D02*
X6728905Y-8846476D01*
X6728905Y-8846476D02*
X6719381Y-8827429D01*
X6719381Y-8827429D02*
X6709857Y-8789333D01*
X6709857Y-8789333D02*
X6709857Y-8741714D01*
X6709857Y-8741714D02*
X6719381Y-8703619D01*
X6719381Y-8703619D02*
X6728905Y-8684571D01*
X6728905Y-8684571D02*
X6738429Y-8675048D01*
X6738429Y-8675048D02*
X6757476Y-8665524D01*
X6909857Y-8846476D02*
X6919381Y-8856000D01*
X6919381Y-8856000D02*
X6909857Y-8865524D01*
X6909857Y-8865524D02*
X6900333Y-8856000D01*
X6900333Y-8856000D02*
X6909857Y-8846476D01*
X6909857Y-8846476D02*
X6909857Y-8865524D01*
X7043191Y-8665524D02*
X7062238Y-8665524D01*
X7062238Y-8665524D02*
X7081286Y-8675048D01*
X7081286Y-8675048D02*
X7090810Y-8684571D01*
X7090810Y-8684571D02*
X7100333Y-8703619D01*
X7100333Y-8703619D02*
X7109857Y-8741714D01*
X7109857Y-8741714D02*
X7109857Y-8789333D01*
X7109857Y-8789333D02*
X7100333Y-8827429D01*
X7100333Y-8827429D02*
X7090810Y-8846476D01*
X7090810Y-8846476D02*
X7081286Y-8856000D01*
X7081286Y-8856000D02*
X7062238Y-8865524D01*
X7062238Y-8865524D02*
X7043191Y-8865524D01*
X7043191Y-8865524D02*
X7024143Y-8856000D01*
X7024143Y-8856000D02*
X7014619Y-8846476D01*
X7014619Y-8846476D02*
X7005095Y-8827429D01*
X7005095Y-8827429D02*
X6995572Y-8789333D01*
X6995572Y-8789333D02*
X6995572Y-8741714D01*
X6995572Y-8741714D02*
X7005095Y-8703619D01*
X7005095Y-8703619D02*
X7014619Y-8684571D01*
X7014619Y-8684571D02*
X7024143Y-8675048D01*
X7024143Y-8675048D02*
X7043191Y-8665524D01*
X7176524Y-8665524D02*
X7300333Y-8665524D01*
X7300333Y-8665524D02*
X7233667Y-8741714D01*
X7233667Y-8741714D02*
X7262238Y-8741714D01*
X7262238Y-8741714D02*
X7281286Y-8751238D01*
X7281286Y-8751238D02*
X7290810Y-8760762D01*
X7290810Y-8760762D02*
X7300333Y-8779810D01*
X7300333Y-8779810D02*
X7300333Y-8827429D01*
X7300333Y-8827429D02*
X7290810Y-8846476D01*
X7290810Y-8846476D02*
X7281286Y-8856000D01*
X7281286Y-8856000D02*
X7262238Y-8865524D01*
X7262238Y-8865524D02*
X7205095Y-8865524D01*
X7205095Y-8865524D02*
X7186048Y-8856000D01*
X7186048Y-8856000D02*
X7176524Y-8846476D01*
X7395572Y-8865524D02*
X7433667Y-8865524D01*
X7433667Y-8865524D02*
X7452714Y-8856000D01*
X7452714Y-8856000D02*
X7462238Y-8846476D01*
X7462238Y-8846476D02*
X7481286Y-8817905D01*
X7481286Y-8817905D02*
X7490810Y-8779810D01*
X7490810Y-8779810D02*
X7490810Y-8703619D01*
X7490810Y-8703619D02*
X7481286Y-8684571D01*
X7481286Y-8684571D02*
X7471762Y-8675048D01*
X7471762Y-8675048D02*
X7452714Y-8665524D01*
X7452714Y-8665524D02*
X7414619Y-8665524D01*
X7414619Y-8665524D02*
X7395572Y-8675048D01*
X7395572Y-8675048D02*
X7386048Y-8684571D01*
X7386048Y-8684571D02*
X7376524Y-8703619D01*
X7376524Y-8703619D02*
X7376524Y-8751238D01*
X7376524Y-8751238D02*
X7386048Y-8770286D01*
X7386048Y-8770286D02*
X7395572Y-8779810D01*
X7395572Y-8779810D02*
X7414619Y-8789333D01*
X7414619Y-8789333D02*
X7452714Y-8789333D01*
X7452714Y-8789333D02*
X7471762Y-8779810D01*
X7471762Y-8779810D02*
X7481286Y-8770286D01*
X7481286Y-8770286D02*
X7490810Y-8751238D01*
X7662238Y-8732190D02*
X7662238Y-8865524D01*
X7614619Y-8656000D02*
X7567000Y-8798857D01*
X7567000Y-8798857D02*
X7690810Y-8798857D01*
X7757476Y-8665524D02*
X7757476Y-8703619D01*
X7833667Y-8665524D02*
X7833667Y-8703619D01*
X8128905Y-8941714D02*
X8119381Y-8932190D01*
X8119381Y-8932190D02*
X8100334Y-8903619D01*
X8100334Y-8903619D02*
X8090810Y-8884571D01*
X8090810Y-8884571D02*
X8081286Y-8856000D01*
X8081286Y-8856000D02*
X8071762Y-8808381D01*
X8071762Y-8808381D02*
X8071762Y-8770286D01*
X8071762Y-8770286D02*
X8081286Y-8722667D01*
X8081286Y-8722667D02*
X8090810Y-8694095D01*
X8090810Y-8694095D02*
X8100334Y-8675048D01*
X8100334Y-8675048D02*
X8119381Y-8646476D01*
X8119381Y-8646476D02*
X8128905Y-8636952D01*
X8309857Y-8865524D02*
X8195572Y-8865524D01*
X8252714Y-8865524D02*
X8252714Y-8665524D01*
X8252714Y-8665524D02*
X8233667Y-8694095D01*
X8233667Y-8694095D02*
X8214619Y-8713143D01*
X8214619Y-8713143D02*
X8195572Y-8722667D01*
X8376524Y-8665524D02*
X8500334Y-8665524D01*
X8500334Y-8665524D02*
X8433667Y-8741714D01*
X8433667Y-8741714D02*
X8462238Y-8741714D01*
X8462238Y-8741714D02*
X8481286Y-8751238D01*
X8481286Y-8751238D02*
X8490810Y-8760762D01*
X8490810Y-8760762D02*
X8500334Y-8779810D01*
X8500334Y-8779810D02*
X8500334Y-8827429D01*
X8500334Y-8827429D02*
X8490810Y-8846476D01*
X8490810Y-8846476D02*
X8481286Y-8856000D01*
X8481286Y-8856000D02*
X8462238Y-8865524D01*
X8462238Y-8865524D02*
X8405096Y-8865524D01*
X8405096Y-8865524D02*
X8386048Y-8856000D01*
X8386048Y-8856000D02*
X8376524Y-8846476D01*
X8738429Y-8865524D02*
X8738429Y-8665524D01*
X8824143Y-8865524D02*
X8824143Y-8760762D01*
X8824143Y-8760762D02*
X8814619Y-8741714D01*
X8814619Y-8741714D02*
X8795572Y-8732190D01*
X8795572Y-8732190D02*
X8767000Y-8732190D01*
X8767000Y-8732190D02*
X8747953Y-8741714D01*
X8747953Y-8741714D02*
X8738429Y-8751238D01*
X8947953Y-8865524D02*
X8928905Y-8856000D01*
X8928905Y-8856000D02*
X8919381Y-8846476D01*
X8919381Y-8846476D02*
X8909858Y-8827429D01*
X8909858Y-8827429D02*
X8909858Y-8770286D01*
X8909858Y-8770286D02*
X8919381Y-8751238D01*
X8919381Y-8751238D02*
X8928905Y-8741714D01*
X8928905Y-8741714D02*
X8947953Y-8732190D01*
X8947953Y-8732190D02*
X8976524Y-8732190D01*
X8976524Y-8732190D02*
X8995572Y-8741714D01*
X8995572Y-8741714D02*
X9005096Y-8751238D01*
X9005096Y-8751238D02*
X9014619Y-8770286D01*
X9014619Y-8770286D02*
X9014619Y-8827429D01*
X9014619Y-8827429D02*
X9005096Y-8846476D01*
X9005096Y-8846476D02*
X8995572Y-8856000D01*
X8995572Y-8856000D02*
X8976524Y-8865524D01*
X8976524Y-8865524D02*
X8947953Y-8865524D01*
X9128905Y-8865524D02*
X9109858Y-8856000D01*
X9109858Y-8856000D02*
X9100334Y-8836952D01*
X9100334Y-8836952D02*
X9100334Y-8665524D01*
X9281286Y-8856000D02*
X9262239Y-8865524D01*
X9262239Y-8865524D02*
X9224143Y-8865524D01*
X9224143Y-8865524D02*
X9205096Y-8856000D01*
X9205096Y-8856000D02*
X9195572Y-8836952D01*
X9195572Y-8836952D02*
X9195572Y-8760762D01*
X9195572Y-8760762D02*
X9205096Y-8741714D01*
X9205096Y-8741714D02*
X9224143Y-8732190D01*
X9224143Y-8732190D02*
X9262239Y-8732190D01*
X9262239Y-8732190D02*
X9281286Y-8741714D01*
X9281286Y-8741714D02*
X9290810Y-8760762D01*
X9290810Y-8760762D02*
X9290810Y-8779810D01*
X9290810Y-8779810D02*
X9195572Y-8798857D01*
X9367000Y-8856000D02*
X9386048Y-8865524D01*
X9386048Y-8865524D02*
X9424143Y-8865524D01*
X9424143Y-8865524D02*
X9443191Y-8856000D01*
X9443191Y-8856000D02*
X9452715Y-8836952D01*
X9452715Y-8836952D02*
X9452715Y-8827429D01*
X9452715Y-8827429D02*
X9443191Y-8808381D01*
X9443191Y-8808381D02*
X9424143Y-8798857D01*
X9424143Y-8798857D02*
X9395572Y-8798857D01*
X9395572Y-8798857D02*
X9376524Y-8789333D01*
X9376524Y-8789333D02*
X9367000Y-8770286D01*
X9367000Y-8770286D02*
X9367000Y-8760762D01*
X9367000Y-8760762D02*
X9376524Y-8741714D01*
X9376524Y-8741714D02*
X9395572Y-8732190D01*
X9395572Y-8732190D02*
X9424143Y-8732190D01*
X9424143Y-8732190D02*
X9443191Y-8741714D01*
X9519381Y-8941714D02*
X9528905Y-8932190D01*
X9528905Y-8932190D02*
X9547953Y-8903619D01*
X9547953Y-8903619D02*
X9557477Y-8884571D01*
X9557477Y-8884571D02*
X9567000Y-8856000D01*
X9567000Y-8856000D02*
X9576524Y-8808381D01*
X9576524Y-8808381D02*
X9576524Y-8770286D01*
X9576524Y-8770286D02*
X9567000Y-8722667D01*
X9567000Y-8722667D02*
X9557477Y-8694095D01*
X9557477Y-8694095D02*
X9547953Y-8675048D01*
X9547953Y-8675048D02*
X9528905Y-8646476D01*
X9528905Y-8646476D02*
X9519381Y-8636952D01*
M02*
