%TF.GenerationSoftware,KiCad,Pcbnew,7.0.2*%
%TF.CreationDate,2023-06-02T21:02:53+10:00*%
%TF.ProjectId,potentiometer-carrier-board,706f7465-6e74-4696-9f6d-657465722d63,rev?*%
%TF.SameCoordinates,Original*%
%TF.FileFunction,Legend,Bot*%
%TF.FilePolarity,Positive*%
%FSLAX46Y46*%
G04 Gerber Fmt 4.6, Leading zero omitted, Abs format (unit mm)*
G04 Created by KiCad (PCBNEW 7.0.2) date 2023-06-02 21:02:53*
%MOMM*%
%LPD*%
G01*
G04 APERTURE LIST*
%ADD10C,0.150000*%
%ADD11C,0.200000*%
%ADD12C,0.100000*%
%ADD13R,1.700000X1.700000*%
%ADD14O,1.700000X1.700000*%
%ADD15C,1.700000*%
G04 APERTURE END LIST*
D10*
X52116726Y-67907837D02*
X51878631Y-68907837D01*
X51878631Y-68907837D02*
X51688155Y-68193551D01*
X51688155Y-68193551D02*
X51497679Y-68907837D01*
X51497679Y-68907837D02*
X51259584Y-67907837D01*
X53926977Y-66188935D02*
X53974596Y-66236555D01*
X53974596Y-66236555D02*
X54117453Y-66284174D01*
X54117453Y-66284174D02*
X54212691Y-66284174D01*
X54212691Y-66284174D02*
X54355548Y-66236555D01*
X54355548Y-66236555D02*
X54450786Y-66141316D01*
X54450786Y-66141316D02*
X54498405Y-66046078D01*
X54498405Y-66046078D02*
X54546024Y-65855602D01*
X54546024Y-65855602D02*
X54546024Y-65712745D01*
X54546024Y-65712745D02*
X54498405Y-65522269D01*
X54498405Y-65522269D02*
X54450786Y-65427031D01*
X54450786Y-65427031D02*
X54355548Y-65331793D01*
X54355548Y-65331793D02*
X54212691Y-65284174D01*
X54212691Y-65284174D02*
X54117453Y-65284174D01*
X54117453Y-65284174D02*
X53974596Y-65331793D01*
X53974596Y-65331793D02*
X53926977Y-65379412D01*
X53069834Y-66284174D02*
X53069834Y-65760364D01*
X53069834Y-65760364D02*
X53117453Y-65665126D01*
X53117453Y-65665126D02*
X53212691Y-65617507D01*
X53212691Y-65617507D02*
X53403167Y-65617507D01*
X53403167Y-65617507D02*
X53498405Y-65665126D01*
X53069834Y-66236555D02*
X53165072Y-66284174D01*
X53165072Y-66284174D02*
X53403167Y-66284174D01*
X53403167Y-66284174D02*
X53498405Y-66236555D01*
X53498405Y-66236555D02*
X53546024Y-66141316D01*
X53546024Y-66141316D02*
X53546024Y-66046078D01*
X53546024Y-66046078D02*
X53498405Y-65950840D01*
X53498405Y-65950840D02*
X53403167Y-65903221D01*
X53403167Y-65903221D02*
X53165072Y-65903221D01*
X53165072Y-65903221D02*
X53069834Y-65855602D01*
X52641262Y-66236555D02*
X52546024Y-66284174D01*
X52546024Y-66284174D02*
X52355548Y-66284174D01*
X52355548Y-66284174D02*
X52260310Y-66236555D01*
X52260310Y-66236555D02*
X52212691Y-66141316D01*
X52212691Y-66141316D02*
X52212691Y-66093697D01*
X52212691Y-66093697D02*
X52260310Y-65998459D01*
X52260310Y-65998459D02*
X52355548Y-65950840D01*
X52355548Y-65950840D02*
X52498405Y-65950840D01*
X52498405Y-65950840D02*
X52593643Y-65903221D01*
X52593643Y-65903221D02*
X52641262Y-65807983D01*
X52641262Y-65807983D02*
X52641262Y-65760364D01*
X52641262Y-65760364D02*
X52593643Y-65665126D01*
X52593643Y-65665126D02*
X52498405Y-65617507D01*
X52498405Y-65617507D02*
X52355548Y-65617507D01*
X52355548Y-65617507D02*
X52260310Y-65665126D01*
X51403167Y-66236555D02*
X51498405Y-66284174D01*
X51498405Y-66284174D02*
X51688881Y-66284174D01*
X51688881Y-66284174D02*
X51784119Y-66236555D01*
X51784119Y-66236555D02*
X51831738Y-66141316D01*
X51831738Y-66141316D02*
X51831738Y-65760364D01*
X51831738Y-65760364D02*
X51784119Y-65665126D01*
X51784119Y-65665126D02*
X51688881Y-65617507D01*
X51688881Y-65617507D02*
X51498405Y-65617507D01*
X51498405Y-65617507D02*
X51403167Y-65665126D01*
X51403167Y-65665126D02*
X51355548Y-65760364D01*
X51355548Y-65760364D02*
X51355548Y-65855602D01*
X51355548Y-65855602D02*
X51831738Y-65950840D01*
X51477115Y-63178377D02*
X51334258Y-63225996D01*
X51334258Y-63225996D02*
X51286639Y-63273615D01*
X51286639Y-63273615D02*
X51239020Y-63368853D01*
X51239020Y-63368853D02*
X51239020Y-63511710D01*
X51239020Y-63511710D02*
X51286639Y-63606948D01*
X51286639Y-63606948D02*
X51334258Y-63654568D01*
X51334258Y-63654568D02*
X51429496Y-63702187D01*
X51429496Y-63702187D02*
X51810448Y-63702187D01*
X51810448Y-63702187D02*
X51810448Y-62702187D01*
X51810448Y-62702187D02*
X51477115Y-62702187D01*
X51477115Y-62702187D02*
X51381877Y-62749806D01*
X51381877Y-62749806D02*
X51334258Y-62797425D01*
X51334258Y-62797425D02*
X51286639Y-62892663D01*
X51286639Y-62892663D02*
X51286639Y-62987901D01*
X51286639Y-62987901D02*
X51334258Y-63083139D01*
X51334258Y-63083139D02*
X51381877Y-63130758D01*
X51381877Y-63130758D02*
X51477115Y-63178377D01*
X51477115Y-63178377D02*
X51810448Y-63178377D01*
X53926977Y-71293838D02*
X53974596Y-71341458D01*
X53974596Y-71341458D02*
X54117453Y-71389077D01*
X54117453Y-71389077D02*
X54212691Y-71389077D01*
X54212691Y-71389077D02*
X54355548Y-71341458D01*
X54355548Y-71341458D02*
X54450786Y-71246219D01*
X54450786Y-71246219D02*
X54498405Y-71150981D01*
X54498405Y-71150981D02*
X54546024Y-70960505D01*
X54546024Y-70960505D02*
X54546024Y-70817648D01*
X54546024Y-70817648D02*
X54498405Y-70627172D01*
X54498405Y-70627172D02*
X54450786Y-70531934D01*
X54450786Y-70531934D02*
X54355548Y-70436696D01*
X54355548Y-70436696D02*
X54212691Y-70389077D01*
X54212691Y-70389077D02*
X54117453Y-70389077D01*
X54117453Y-70389077D02*
X53974596Y-70436696D01*
X53974596Y-70436696D02*
X53926977Y-70484315D01*
X53069834Y-71389077D02*
X53069834Y-70865267D01*
X53069834Y-70865267D02*
X53117453Y-70770029D01*
X53117453Y-70770029D02*
X53212691Y-70722410D01*
X53212691Y-70722410D02*
X53403167Y-70722410D01*
X53403167Y-70722410D02*
X53498405Y-70770029D01*
X53069834Y-71341458D02*
X53165072Y-71389077D01*
X53165072Y-71389077D02*
X53403167Y-71389077D01*
X53403167Y-71389077D02*
X53498405Y-71341458D01*
X53498405Y-71341458D02*
X53546024Y-71246219D01*
X53546024Y-71246219D02*
X53546024Y-71150981D01*
X53546024Y-71150981D02*
X53498405Y-71055743D01*
X53498405Y-71055743D02*
X53403167Y-71008124D01*
X53403167Y-71008124D02*
X53165072Y-71008124D01*
X53165072Y-71008124D02*
X53069834Y-70960505D01*
X52641262Y-71341458D02*
X52546024Y-71389077D01*
X52546024Y-71389077D02*
X52355548Y-71389077D01*
X52355548Y-71389077D02*
X52260310Y-71341458D01*
X52260310Y-71341458D02*
X52212691Y-71246219D01*
X52212691Y-71246219D02*
X52212691Y-71198600D01*
X52212691Y-71198600D02*
X52260310Y-71103362D01*
X52260310Y-71103362D02*
X52355548Y-71055743D01*
X52355548Y-71055743D02*
X52498405Y-71055743D01*
X52498405Y-71055743D02*
X52593643Y-71008124D01*
X52593643Y-71008124D02*
X52641262Y-70912886D01*
X52641262Y-70912886D02*
X52641262Y-70865267D01*
X52641262Y-70865267D02*
X52593643Y-70770029D01*
X52593643Y-70770029D02*
X52498405Y-70722410D01*
X52498405Y-70722410D02*
X52355548Y-70722410D01*
X52355548Y-70722410D02*
X52260310Y-70770029D01*
X51403167Y-71341458D02*
X51498405Y-71389077D01*
X51498405Y-71389077D02*
X51688881Y-71389077D01*
X51688881Y-71389077D02*
X51784119Y-71341458D01*
X51784119Y-71341458D02*
X51831738Y-71246219D01*
X51831738Y-71246219D02*
X51831738Y-70865267D01*
X51831738Y-70865267D02*
X51784119Y-70770029D01*
X51784119Y-70770029D02*
X51688881Y-70722410D01*
X51688881Y-70722410D02*
X51498405Y-70722410D01*
X51498405Y-70722410D02*
X51403167Y-70770029D01*
X51403167Y-70770029D02*
X51355548Y-70865267D01*
X51355548Y-70865267D02*
X51355548Y-70960505D01*
X51355548Y-70960505D02*
X51831738Y-71055743D01*
X52026899Y-73799633D02*
X51550709Y-73799633D01*
X52122137Y-74085348D02*
X51788804Y-73085348D01*
X51788804Y-73085348D02*
X51455471Y-74085348D01*
D11*
%TO.C,J3*%
X58379732Y-52109582D02*
X58236875Y-52157201D01*
X58236875Y-52157201D02*
X58189256Y-52204820D01*
X58189256Y-52204820D02*
X58141637Y-52300058D01*
X58141637Y-52300058D02*
X58141637Y-52442915D01*
X58141637Y-52442915D02*
X58189256Y-52538153D01*
X58189256Y-52538153D02*
X58236875Y-52585773D01*
X58236875Y-52585773D02*
X58332113Y-52633392D01*
X58332113Y-52633392D02*
X58713065Y-52633392D01*
X58713065Y-52633392D02*
X58713065Y-51633392D01*
X58713065Y-51633392D02*
X58379732Y-51633392D01*
X58379732Y-51633392D02*
X58284494Y-51681011D01*
X58284494Y-51681011D02*
X58236875Y-51728630D01*
X58236875Y-51728630D02*
X58189256Y-51823868D01*
X58189256Y-51823868D02*
X58189256Y-51919106D01*
X58189256Y-51919106D02*
X58236875Y-52014344D01*
X58236875Y-52014344D02*
X58284494Y-52061963D01*
X58284494Y-52061963D02*
X58379732Y-52109582D01*
X58379732Y-52109582D02*
X58713065Y-52109582D01*
X63986664Y-51643875D02*
X63748569Y-52643875D01*
X63748569Y-52643875D02*
X63558093Y-51929589D01*
X63558093Y-51929589D02*
X63367617Y-52643875D01*
X63367617Y-52643875D02*
X63129522Y-51643875D01*
X69064995Y-52347677D02*
X68588805Y-52347677D01*
X69160233Y-52633392D02*
X68826900Y-51633392D01*
X68826900Y-51633392D02*
X68493567Y-52633392D01*
D12*
X55880000Y-45720000D02*
X71120000Y-45720000D01*
X71120000Y-45720000D02*
X71120000Y-50800000D01*
X71120000Y-50800000D02*
X55880000Y-50800000D01*
X55880000Y-50800000D02*
X55880000Y-45720000D01*
%TD*%
%LPC*%
D13*
%TO.C,J1*%
X48260000Y-63500000D03*
D14*
X48260000Y-66040000D03*
X48260000Y-68580000D03*
X48260000Y-71120000D03*
X48260000Y-73660000D03*
%TD*%
D13*
%TO.C,J2*%
X78740000Y-63500000D03*
D14*
X78740000Y-66040000D03*
X78740000Y-68580000D03*
X78740000Y-71120000D03*
X78740000Y-73660000D03*
%TD*%
D15*
%TO.C,J3*%
X58420000Y-48260000D03*
X63500000Y-48260000D03*
X68580000Y-48260000D03*
%TD*%
%LPD*%
M02*
